<mxfile host="app.diagrams.net" agent="Mozilla/5.0 (X11; Linux x86_64; rv:128.0) Gecko/20100101 Firefox/128.0" version="24.7.5" pages="4">
  <diagram name="ページ1" id="QaieerKhkq7__LM671Lb">
    <mxGraphModel dx="954" dy="645" grid="1" gridSize="10" guides="1" tooltips="1" connect="1" arrows="1" fold="1" page="1" pageScale="1" pageWidth="1000" pageHeight="600" math="0" shadow="0">
      <root>
        <mxCell id="0" />
        <mxCell id="1" parent="0" />
        <mxCell id="_ibubtrkf18vV1Gn9asM-2" value="" style="endArrow=none;html=1;rounded=0;fillColor=#dae8fc;strokeColor=#6c8ebf;strokeWidth=5;curved=1;" edge="1" parent="1" target="_ibubtrkf18vV1Gn9asM-3">
          <mxGeometry width="50" height="50" relative="1" as="geometry">
            <mxPoint x="480" y="320" as="sourcePoint" />
            <mxPoint x="720" y="120" as="targetPoint" />
            <Array as="points">
              <mxPoint x="500" y="315" />
              <mxPoint x="530" y="315" />
              <mxPoint x="570" y="315" />
              <mxPoint x="570" y="275" />
              <mxPoint x="570" y="160" />
              <mxPoint x="570" y="120" />
              <mxPoint x="610" y="120" />
            </Array>
          </mxGeometry>
        </mxCell>
        <mxCell id="R3fqboOcB1MEgXBpDGtV-14" value="" style="endArrow=none;html=1;strokeWidth=1;rounded=0;fillColor=#f5f5f5;strokeColor=#666666;opacity=50;" parent="1" edge="1">
          <mxGeometry width="50" height="50" relative="1" as="geometry">
            <mxPoint x="440" y="580" as="sourcePoint" />
            <mxPoint x="70" y="120" as="targetPoint" />
            <Array as="points">
              <mxPoint x="440" y="280" />
              <mxPoint x="600" y="280" />
              <mxPoint x="600" y="210" />
              <mxPoint x="70" y="210" />
            </Array>
          </mxGeometry>
        </mxCell>
        <mxCell id="xgX-yL8DDQo8ggBhsHWy-1" value="" style="endArrow=none;html=1;rounded=0;fillColor=#dae8fc;strokeColor=#6c8ebf;strokeWidth=5;curved=1;" parent="1" edge="1" source="_ibubtrkf18vV1Gn9asM-3">
          <mxGeometry width="50" height="50" relative="1" as="geometry">
            <mxPoint x="480" y="320" as="sourcePoint" />
            <mxPoint x="720" y="120" as="targetPoint" />
            <Array as="points" />
          </mxGeometry>
        </mxCell>
        <mxCell id="R3fqboOcB1MEgXBpDGtV-12" value="" style="endArrow=none;html=1;strokeWidth=1;rounded=0;fillColor=#f5f5f5;strokeColor=#666666;opacity=50;" parent="1" edge="1">
          <mxGeometry width="50" height="50" relative="1" as="geometry">
            <mxPoint x="400" y="480" as="sourcePoint" />
            <mxPoint x="200" y="360" as="targetPoint" />
            <Array as="points">
              <mxPoint x="400" y="360" />
            </Array>
          </mxGeometry>
        </mxCell>
        <mxCell id="R3fqboOcB1MEgXBpDGtV-16" value="" style="endArrow=none;html=1;strokeWidth=1;rounded=0;fillColor=#f5f5f5;strokeColor=#666666;opacity=50;" parent="1" edge="1">
          <mxGeometry width="50" height="50" relative="1" as="geometry">
            <mxPoint x="100" y="120" as="sourcePoint" />
            <mxPoint x="880" y="350" as="targetPoint" />
            <Array as="points">
              <mxPoint x="100" y="560" />
              <mxPoint x="520" y="560" />
              <mxPoint x="520" y="300" />
              <mxPoint x="880" y="300" />
            </Array>
          </mxGeometry>
        </mxCell>
        <mxCell id="SqQYFrkd0iO5lQTSalbu-2" value="" style="ellipse;shape=doubleEllipse;whiteSpace=wrap;html=1;aspect=fixed;" parent="1" vertex="1">
          <mxGeometry x="350" y="470" width="20" height="20" as="geometry" />
        </mxCell>
        <mxCell id="SqQYFrkd0iO5lQTSalbu-1" value="" style="ellipse;shape=doubleEllipse;whiteSpace=wrap;html=1;aspect=fixed;" parent="1" vertex="1">
          <mxGeometry x="110" y="110" width="20" height="20" as="geometry" />
        </mxCell>
        <mxCell id="SqQYFrkd0iO5lQTSalbu-4" value="" style="ellipse;shape=doubleEllipse;whiteSpace=wrap;html=1;aspect=fixed;" parent="1" vertex="1">
          <mxGeometry x="870" y="310" width="20" height="20" as="geometry" />
        </mxCell>
        <mxCell id="SqQYFrkd0iO5lQTSalbu-10" value="" style="endArrow=none;html=1;rounded=0;entryX=0;entryY=0.5;entryDx=0;entryDy=0;exitX=1;exitY=0.5;exitDx=0;exitDy=0;fillColor=#f8cecc;strokeColor=#b85450;strokeWidth=5;" parent="1" source="SqQYFrkd0iO5lQTSalbu-7" target="SqQYFrkd0iO5lQTSalbu-4" edge="1">
          <mxGeometry width="50" height="50" relative="1" as="geometry">
            <mxPoint x="600" y="390" as="sourcePoint" />
            <mxPoint x="650" y="340" as="targetPoint" />
          </mxGeometry>
        </mxCell>
        <mxCell id="SqQYFrkd0iO5lQTSalbu-14" value="&lt;div&gt;シベリア&lt;br&gt;&lt;/div&gt;A01" style="text;html=1;align=center;verticalAlign=middle;whiteSpace=wrap;rounded=0;" parent="1" vertex="1">
          <mxGeometry x="110" y="80" width="60" height="40" as="geometry" />
        </mxCell>
        <mxCell id="SqQYFrkd0iO5lQTSalbu-15" value="&lt;div&gt;岐阜&lt;/div&gt;A03" style="text;html=1;align=center;verticalAlign=middle;whiteSpace=wrap;rounded=0;" parent="1" vertex="1">
          <mxGeometry x="350" y="440" width="60" height="40" as="geometry" />
        </mxCell>
        <mxCell id="SqQYFrkd0iO5lQTSalbu-17" value="&lt;div&gt;伊賀&lt;br&gt;&lt;/div&gt;B04" style="text;html=1;align=center;verticalAlign=middle;whiteSpace=wrap;rounded=0;" parent="1" vertex="1">
          <mxGeometry x="870" y="280" width="80" height="35" as="geometry" />
        </mxCell>
        <mxCell id="SqQYFrkd0iO5lQTSalbu-18" value="&lt;div&gt;&lt;font style=&quot;font-size: 10px;&quot;&gt;放物本線&lt;/font&gt;&lt;/div&gt;&lt;div&gt;&lt;font style=&quot;font-size: 10px;&quot;&gt;ナンバリングA&lt;/font&gt;&lt;br&gt;&lt;/div&gt;" style="text;html=1;align=center;verticalAlign=middle;whiteSpace=wrap;rounded=0;fillColor=#d5e8d4;strokeColor=#82b366;" parent="1" vertex="1">
          <mxGeometry x="880" y="440" width="80" height="40" as="geometry" />
        </mxCell>
        <mxCell id="SqQYFrkd0iO5lQTSalbu-19" value="&lt;div&gt;&lt;font style=&quot;font-size: 10px;&quot;&gt;漸近線&lt;/font&gt;&lt;/div&gt;&lt;div&gt;&lt;font style=&quot;font-size: 10px;&quot;&gt;ナンバリングB&lt;/font&gt;&lt;/div&gt;" style="text;html=1;align=center;verticalAlign=middle;whiteSpace=wrap;rounded=0;fillColor=#f8cecc;strokeColor=#b85450;" parent="1" vertex="1">
          <mxGeometry x="880" y="480" width="80" height="40" as="geometry" />
        </mxCell>
        <mxCell id="SqQYFrkd0iO5lQTSalbu-20" value="&lt;font style=&quot;font-size: 17px;&quot;&gt;放物線路線図&lt;/font&gt;" style="rounded=0;whiteSpace=wrap;html=1;" parent="1" vertex="1">
          <mxGeometry x="840" y="40" width="120" height="40" as="geometry" />
        </mxCell>
        <mxCell id="SqQYFrkd0iO5lQTSalbu-24" value="" style="endArrow=none;html=1;rounded=0;strokeWidth=3;entryX=0;entryY=0.5;entryDx=0;entryDy=0;" parent="1" target="SqQYFrkd0iO5lQTSalbu-7" edge="1">
          <mxGeometry width="50" height="50" relative="1" as="geometry">
            <mxPoint x="220" y="320" as="sourcePoint" />
            <mxPoint x="305" y="319.55" as="targetPoint" />
          </mxGeometry>
        </mxCell>
        <mxCell id="FIMSJZMJo0aLoId7ApQQ-7" value="" style="endArrow=none;html=1;rounded=0;exitX=0.5;exitY=0;exitDx=0;exitDy=0;fillColor=#f8cecc;strokeColor=#b85450;strokeWidth=5;curved=1;" parent="1" source="SqQYFrkd0iO5lQTSalbu-2" edge="1">
          <mxGeometry width="50" height="50" relative="1" as="geometry">
            <mxPoint x="300" y="400" as="sourcePoint" />
            <mxPoint x="510" y="320" as="targetPoint" />
            <Array as="points">
              <mxPoint x="360" y="360" />
              <mxPoint x="360" y="320" />
              <mxPoint x="400" y="320" />
            </Array>
          </mxGeometry>
        </mxCell>
        <mxCell id="SqQYFrkd0iO5lQTSalbu-22" value="" style="endArrow=none;html=1;rounded=0;fillColor=#d5e8d4;strokeColor=#82b366;strokeWidth=5;exitX=0.5;exitY=1;exitDx=0;exitDy=0;entryX=0.5;entryY=0;entryDx=0;entryDy=0;curved=1;" parent="1" source="Q39rQbwI4uNKiLoWqvps-1" target="SqQYFrkd0iO5lQTSalbu-2" edge="1">
          <mxGeometry width="50" height="50" relative="1" as="geometry">
            <mxPoint x="190" y="345" as="sourcePoint" />
            <mxPoint x="240" y="295" as="targetPoint" />
            <Array as="points">
              <mxPoint x="120" y="280" />
              <mxPoint x="120" y="320" />
              <mxPoint x="160" y="320" />
              <mxPoint x="320" y="320" />
              <mxPoint x="360" y="320" />
              <mxPoint x="360" y="360" />
            </Array>
          </mxGeometry>
        </mxCell>
        <mxCell id="FIMSJZMJo0aLoId7ApQQ-12" value="" style="rounded=0;whiteSpace=wrap;html=1;" parent="1" vertex="1">
          <mxGeometry width="10" height="10" as="geometry" />
        </mxCell>
        <mxCell id="FIMSJZMJo0aLoId7ApQQ-13" value="" style="rounded=0;whiteSpace=wrap;html=1;" parent="1" vertex="1">
          <mxGeometry y="590" width="10" height="10" as="geometry" />
        </mxCell>
        <mxCell id="FIMSJZMJo0aLoId7ApQQ-14" value="" style="rounded=0;whiteSpace=wrap;html=1;" parent="1" vertex="1">
          <mxGeometry x="990" y="590" width="10" height="10" as="geometry" />
        </mxCell>
        <mxCell id="FIMSJZMJo0aLoId7ApQQ-15" value="" style="rounded=0;whiteSpace=wrap;html=1;" parent="1" vertex="1">
          <mxGeometry x="990" width="10" height="10" as="geometry" />
        </mxCell>
        <mxCell id="Q39rQbwI4uNKiLoWqvps-2" value="" style="endArrow=none;html=1;rounded=0;fillColor=#d5e8d4;strokeColor=#82b366;strokeWidth=5;exitX=0.5;exitY=1;exitDx=0;exitDy=0;entryX=0.5;entryY=0;entryDx=0;entryDy=0;curved=1;" parent="1" source="SqQYFrkd0iO5lQTSalbu-1" target="Q39rQbwI4uNKiLoWqvps-1" edge="1">
          <mxGeometry width="50" height="50" relative="1" as="geometry">
            <mxPoint x="120" y="130" as="sourcePoint" />
            <mxPoint x="360" y="470" as="targetPoint" />
            <Array as="points" />
          </mxGeometry>
        </mxCell>
        <mxCell id="Q39rQbwI4uNKiLoWqvps-1" value="" style="ellipse;shape=doubleEllipse;whiteSpace=wrap;html=1;aspect=fixed;" parent="1" vertex="1">
          <mxGeometry x="110" y="200" width="20" height="20" as="geometry" />
        </mxCell>
        <mxCell id="Q39rQbwI4uNKiLoWqvps-3" value="&lt;div&gt;桑折&lt;br&gt;&lt;/div&gt;A02" style="text;html=1;align=center;verticalAlign=middle;whiteSpace=wrap;rounded=0;" parent="1" vertex="1">
          <mxGeometry x="110" y="170" width="60" height="40" as="geometry" />
        </mxCell>
        <mxCell id="J4DxMuI-LyXr6t9e-6Cl-1" value="放物デルタ線" style="text;html=1;align=center;verticalAlign=middle;whiteSpace=wrap;rounded=0;" parent="1" vertex="1">
          <mxGeometry x="320" y="285" width="80" height="30" as="geometry" />
        </mxCell>
        <mxCell id="R3fqboOcB1MEgXBpDGtV-9" value="&lt;div&gt;&lt;font size=&quot;1&quot;&gt;他社乗り換え&lt;/font&gt;&lt;/div&gt;&lt;div&gt;&lt;font size=&quot;1&quot;&gt;LGVパリ、&lt;/font&gt;&lt;font size=&quot;1&quot;&gt;豊鉄&lt;/font&gt;&lt;font size=&quot;1&quot;&gt;豊洲&lt;br&gt;&lt;/font&gt;&lt;/div&gt;" style="whiteSpace=wrap;html=1;shape=mxgraph.basic.roundRectCallout;dx=14.17;dy=7;size=5;boundedLbl=1;" parent="1" vertex="1">
          <mxGeometry x="390" y="400" width="100" height="40" as="geometry" />
        </mxCell>
        <mxCell id="R3fqboOcB1MEgXBpDGtV-8" value="&lt;div&gt;&lt;font size=&quot;1&quot;&gt;他社&lt;/font&gt;&lt;font size=&quot;1&quot;&gt;乗&lt;/font&gt;&lt;font size=&quot;1&quot;&gt;り換え&lt;/font&gt;&lt;/div&gt;&lt;div&gt;&lt;font size=&quot;1&quot;&gt;豊鉄天空橋&lt;br&gt;&lt;/font&gt;&lt;/div&gt;" style="whiteSpace=wrap;html=1;shape=mxgraph.basic.roundRectCallout;dx=14.17;dy=7;size=5;boundedLbl=1;" parent="1" vertex="1">
          <mxGeometry x="560" y="240" width="80" height="40" as="geometry" />
        </mxCell>
        <mxCell id="R3fqboOcB1MEgXBpDGtV-15" value="" style="endArrow=none;html=1;strokeWidth=1;rounded=0;fillColor=#f5f5f5;strokeColor=#666666;opacity=50;" parent="1" edge="1">
          <mxGeometry width="50" height="50" relative="1" as="geometry">
            <mxPoint x="600" y="230" as="sourcePoint" />
            <mxPoint x="440" y="580" as="targetPoint" />
            <Array as="points">
              <mxPoint x="880" y="230" />
              <mxPoint x="880" y="580" />
            </Array>
          </mxGeometry>
        </mxCell>
        <mxCell id="R3fqboOcB1MEgXBpDGtV-19" value="&lt;i&gt;&lt;font color=&quot;#666666&quot;&gt;FUKUI&lt;/font&gt;&lt;/i&gt;" style="text;html=1;align=center;verticalAlign=middle;whiteSpace=wrap;rounded=0;" parent="1" vertex="1">
          <mxGeometry x="560" y="460" width="80" height="20" as="geometry" />
        </mxCell>
        <mxCell id="R3fqboOcB1MEgXBpDGtV-22" value="&lt;font color=&quot;#666666&quot;&gt;&lt;i&gt;SIBERIA&lt;/i&gt;&lt;/font&gt;" style="text;html=1;align=center;verticalAlign=middle;whiteSpace=wrap;rounded=0;" parent="1" vertex="1">
          <mxGeometry x="40" y="40" width="80" height="20" as="geometry" />
        </mxCell>
        <mxCell id="R3fqboOcB1MEgXBpDGtV-26" value="&lt;font color=&quot;#666666&quot;&gt;&lt;i&gt;VALICYA&lt;/i&gt;&lt;/font&gt;" style="text;html=1;align=center;verticalAlign=middle;whiteSpace=wrap;rounded=0;" parent="1" vertex="1">
          <mxGeometry x="660" y="170" width="80" height="20" as="geometry" />
        </mxCell>
        <mxCell id="R3fqboOcB1MEgXBpDGtV-27" value="&lt;font color=&quot;#666666&quot;&gt;&lt;i&gt;FUKUSHIMA&lt;/i&gt;&lt;/font&gt;" style="text;html=1;align=center;verticalAlign=middle;whiteSpace=wrap;rounded=0;" parent="1" vertex="1">
          <mxGeometry x="200" y="180" width="80" height="20" as="geometry" />
        </mxCell>
        <mxCell id="82oU8m-mU8-nAYUcE6YX-1" value="&lt;font color=&quot;#666666&quot;&gt;&lt;i&gt;HIDA&lt;/i&gt;&lt;/font&gt;" style="text;html=1;align=center;verticalAlign=middle;whiteSpace=wrap;rounded=0;" parent="1" vertex="1">
          <mxGeometry x="390" y="520" width="80" height="20" as="geometry" />
        </mxCell>
        <mxCell id="82oU8m-mU8-nAYUcE6YX-4" value="&lt;font color=&quot;#666666&quot;&gt;&lt;i&gt;TOYOSU&lt;/i&gt;&lt;/font&gt;" style="text;html=1;align=center;verticalAlign=middle;whiteSpace=wrap;rounded=0;" parent="1" vertex="1">
          <mxGeometry x="450" y="430" width="80" height="20" as="geometry" />
        </mxCell>
        <mxCell id="NOJw9FG4yetDYjDhJAL9-1" value="&lt;div&gt;&lt;font size=&quot;1&quot;&gt;他社&lt;/font&gt;&lt;font size=&quot;1&quot;&gt;乗&lt;/font&gt;&lt;font size=&quot;1&quot;&gt;り換え&lt;/font&gt;&lt;/div&gt;&lt;div&gt;&lt;font size=&quot;1&quot;&gt;豊鉄澄川&lt;/font&gt;&lt;/div&gt;" style="whiteSpace=wrap;html=1;shape=mxgraph.basic.roundRectCallout;dx=14.17;dy=7;size=5;boundedLbl=1;" parent="1" vertex="1">
          <mxGeometry x="140" y="130" width="80" height="40" as="geometry" />
        </mxCell>
        <mxCell id="DWD2UvIaVbG-8XY5Nkfv-1" value="&lt;font color=&quot;#666666&quot;&gt;&lt;i&gt;KOKA&lt;/i&gt;&lt;/font&gt;" style="text;html=1;align=center;verticalAlign=middle;whiteSpace=wrap;rounded=0;" parent="1" vertex="1">
          <mxGeometry x="870" y="360" width="80" height="20" as="geometry" />
        </mxCell>
        <mxCell id="DWD2UvIaVbG-8XY5Nkfv-5" value="&lt;font color=&quot;#666666&quot;&gt;&lt;i&gt;YAMANASHI&lt;/i&gt;&lt;/font&gt;" style="text;html=1;align=center;verticalAlign=middle;whiteSpace=wrap;rounded=0;" parent="1" vertex="1">
          <mxGeometry x="430" y="110" width="80" height="20" as="geometry" />
        </mxCell>
        <mxCell id="evUX_fBPlQq1jWejn8c_-1" value="&lt;div&gt;&lt;font size=&quot;1&quot;&gt;他社&lt;/font&gt;&lt;font size=&quot;1&quot;&gt;乗&lt;/font&gt;&lt;font size=&quot;1&quot;&gt;り換え&lt;/font&gt;&lt;/div&gt;&lt;div&gt;&lt;font size=&quot;1&quot;&gt;豊鉄伊賀&lt;/font&gt;&lt;/div&gt;" style="whiteSpace=wrap;html=1;shape=mxgraph.basic.roundRectCallout;dx=14.17;dy=7;size=5;boundedLbl=1;" parent="1" vertex="1">
          <mxGeometry x="920" y="250" width="80" height="40" as="geometry" />
        </mxCell>
        <mxCell id="xgX-yL8DDQo8ggBhsHWy-4" value="&lt;font style=&quot;font-size: 10px;&quot;&gt;双曲線&lt;/font&gt;&lt;div&gt;&lt;font style=&quot;font-size: 10px;&quot;&gt;ナンバリングC&lt;/font&gt;&lt;/div&gt;" style="text;html=1;align=center;verticalAlign=middle;whiteSpace=wrap;rounded=0;fillColor=#dae8fc;strokeColor=#6c8ebf;" parent="1" vertex="1">
          <mxGeometry x="880" y="520" width="80" height="40" as="geometry" />
        </mxCell>
        <mxCell id="VxcYVVWIhXwvnrBJlLpz-1" value="" style="endArrow=none;html=1;strokeWidth=1;rounded=0;fillColor=#f5f5f5;strokeColor=#666666;opacity=50;" parent="1" edge="1">
          <mxGeometry width="50" height="50" relative="1" as="geometry">
            <mxPoint x="780" y="160" as="sourcePoint" />
            <mxPoint x="600" y="210" as="targetPoint" />
            <Array as="points">
              <mxPoint x="800" y="160" />
              <mxPoint x="600" y="160" />
            </Array>
          </mxGeometry>
        </mxCell>
        <mxCell id="_ibubtrkf18vV1Gn9asM-1" value="" style="endArrow=none;html=1;strokeWidth=1;rounded=0;fillColor=#f5f5f5;strokeColor=#666666;opacity=50;" edge="1" parent="1">
          <mxGeometry width="50" height="50" relative="1" as="geometry">
            <mxPoint x="270" y="350" as="sourcePoint" />
            <mxPoint x="270" y="350" as="targetPoint" />
            <Array as="points">
              <mxPoint x="270" y="450" />
              <mxPoint x="470" y="450" />
              <mxPoint x="470" y="350" />
            </Array>
          </mxGeometry>
        </mxCell>
        <mxCell id="_ibubtrkf18vV1Gn9asM-3" value="" style="ellipse;shape=doubleEllipse;whiteSpace=wrap;html=1;aspect=fixed;" vertex="1" parent="1">
          <mxGeometry x="710" y="110" width="20" height="20" as="geometry" />
        </mxCell>
        <mxCell id="SqQYFrkd0iO5lQTSalbu-16" value="&lt;div&gt;放物天空橋&lt;/div&gt;B03, C03" style="text;html=1;align=center;verticalAlign=middle;whiteSpace=wrap;rounded=0;" parent="1" vertex="1">
          <mxGeometry x="510" y="280" width="70" height="35" as="geometry" />
        </mxCell>
        <mxCell id="_ibubtrkf18vV1Gn9asM-4" value="&lt;div&gt;北バリシア&lt;br&gt;&lt;/div&gt;C04" style="text;html=1;align=center;verticalAlign=middle;whiteSpace=wrap;rounded=0;" vertex="1" parent="1">
          <mxGeometry x="700" y="82.5" width="70" height="35" as="geometry" />
        </mxCell>
        <mxCell id="_ibubtrkf18vV1Gn9asM-5" value="&lt;div&gt;&lt;font size=&quot;1&quot;&gt;他社乗り換え&lt;/font&gt;&lt;/div&gt;&lt;div&gt;&lt;font size=&quot;1&quot;&gt;はるかぜバリシア&lt;br&gt;&lt;/font&gt;&lt;/div&gt;" style="whiteSpace=wrap;html=1;shape=mxgraph.basic.roundRectCallout;dx=14.17;dy=7;size=5;boundedLbl=1;" vertex="1" parent="1">
          <mxGeometry x="730" y="42.5" width="100" height="40" as="geometry" />
        </mxCell>
        <mxCell id="SqQYFrkd0iO5lQTSalbu-7" value="" style="ellipse;shape=doubleEllipse;whiteSpace=wrap;html=1;aspect=fixed;" parent="1" vertex="1">
          <mxGeometry x="510" y="310" width="20" height="20" as="geometry" />
        </mxCell>
      </root>
    </mxGraphModel>
  </diagram>
  <diagram id="wAnHfWNqVOHp3cAsCT1M" name="ページ2">
    <mxGraphModel dx="954" dy="45" grid="1" gridSize="10" guides="1" tooltips="1" connect="1" arrows="1" fold="1" page="1" pageScale="1" pageWidth="1000" pageHeight="600" math="0" shadow="0">
      <root>
        <mxCell id="0" />
        <mxCell id="1" parent="0" />
        <mxCell id="9qsMBOMVa98M0Bx4w4BY-1" value="" style="rounded=0;whiteSpace=wrap;html=1;" parent="1" vertex="1">
          <mxGeometry y="1190" width="10" height="10" as="geometry" />
        </mxCell>
        <mxCell id="9qsMBOMVa98M0Bx4w4BY-2" value="" style="rounded=0;whiteSpace=wrap;html=1;" parent="1" vertex="1">
          <mxGeometry x="990" y="1190" width="10" height="10" as="geometry" />
        </mxCell>
        <mxCell id="9qsMBOMVa98M0Bx4w4BY-3" value="&lt;div&gt;準急&lt;br&gt;&lt;/div&gt;&lt;div&gt;SEMI EXP&lt;br&gt;&lt;/div&gt;" style="text;html=1;align=center;verticalAlign=middle;whiteSpace=wrap;rounded=0;fillColor=#d5e8d4;strokeColor=#82b366;" parent="1" vertex="1">
          <mxGeometry x="880" y="1080" width="80" height="40" as="geometry" />
        </mxCell>
        <mxCell id="9qsMBOMVa98M0Bx4w4BY-4" value="&lt;div&gt;急行&lt;br&gt;&lt;/div&gt;&lt;div&gt;EXPRESS&lt;br&gt;&lt;/div&gt;" style="text;html=1;align=center;verticalAlign=middle;whiteSpace=wrap;rounded=0;fillColor=#ffe6cc;strokeColor=#d79b00;" parent="1" vertex="1">
          <mxGeometry x="880" y="1040" width="80" height="40" as="geometry" />
        </mxCell>
        <mxCell id="9qsMBOMVa98M0Bx4w4BY-5" value="" style="endArrow=none;html=1;rounded=0;fillColor=#dae8fc;strokeColor=#6c8ebf;strokeWidth=5;" parent="1" edge="1">
          <mxGeometry width="50" height="50" relative="1" as="geometry">
            <mxPoint x="160" y="737.5" as="sourcePoint" />
            <mxPoint x="920" y="737.5" as="targetPoint" />
          </mxGeometry>
        </mxCell>
        <mxCell id="9qsMBOMVa98M0Bx4w4BY-6" value="" style="endArrow=none;html=1;rounded=0;fillColor=#ffe6cc;strokeColor=#d79b00;strokeWidth=5;" parent="1" edge="1">
          <mxGeometry width="50" height="50" relative="1" as="geometry">
            <mxPoint x="160" y="779.23" as="sourcePoint" />
            <mxPoint x="920" y="779.23" as="targetPoint" />
          </mxGeometry>
        </mxCell>
        <mxCell id="9qsMBOMVa98M0Bx4w4BY-7" value="&lt;div&gt;&lt;font style=&quot;font-size: 10px;&quot;&gt;放&lt;/font&gt;&lt;/div&gt;&lt;div&gt;&lt;font style=&quot;font-size: 10px;&quot;&gt;物&lt;/font&gt;&lt;/div&gt;&lt;div&gt;&lt;font style=&quot;font-size: 10px;&quot;&gt;本&lt;/font&gt;&lt;/div&gt;&lt;div&gt;&lt;font style=&quot;font-size: 10px;&quot;&gt;線&lt;/font&gt;&lt;/div&gt;" style="text;html=1;align=center;verticalAlign=middle;whiteSpace=wrap;rounded=0;fillColor=#d5e8d4;strokeColor=#82b366;" parent="1" vertex="1">
          <mxGeometry x="80" y="720" width="40" height="80" as="geometry" />
        </mxCell>
        <mxCell id="9qsMBOMVa98M0Bx4w4BY-8" value="&lt;div&gt;&lt;font style=&quot;font-size: 10px;&quot;&gt;漸&lt;/font&gt;&lt;/div&gt;&lt;div&gt;&lt;font style=&quot;font-size: 10px;&quot;&gt;近&lt;/font&gt;&lt;/div&gt;&lt;div&gt;&lt;font style=&quot;font-size: 10px;&quot;&gt;線&lt;/font&gt;&lt;/div&gt;" style="text;html=1;align=center;verticalAlign=middle;whiteSpace=wrap;rounded=0;fillColor=#f8cecc;strokeColor=#b85450;" parent="1" vertex="1">
          <mxGeometry x="80" y="840" width="40" height="80" as="geometry" />
        </mxCell>
        <mxCell id="9qsMBOMVa98M0Bx4w4BY-9" value="" style="endArrow=none;html=1;rounded=0;fillColor=#dae8fc;strokeColor=#6c8ebf;strokeWidth=5;" parent="1" edge="1">
          <mxGeometry width="50" height="50" relative="1" as="geometry">
            <mxPoint x="450" y="740" as="sourcePoint" />
            <mxPoint x="920" y="860" as="targetPoint" />
            <Array as="points">
              <mxPoint x="490" y="860" />
            </Array>
          </mxGeometry>
        </mxCell>
        <mxCell id="9qsMBOMVa98M0Bx4w4BY-10" value="" style="endArrow=none;html=1;rounded=0;fillColor=#ffe6cc;strokeColor=#d79b00;strokeWidth=5;" parent="1" edge="1">
          <mxGeometry width="50" height="50" relative="1" as="geometry">
            <mxPoint x="430" y="780" as="sourcePoint" />
            <mxPoint x="920" y="900" as="targetPoint" />
            <Array as="points">
              <mxPoint x="470" y="900" />
            </Array>
          </mxGeometry>
        </mxCell>
        <mxCell id="hwgrxbp9EYGtSFhaUP7p-1" value="" style="rounded=0;whiteSpace=wrap;html=1;" parent="1" vertex="1">
          <mxGeometry x="990" y="600" width="10" height="10" as="geometry" />
        </mxCell>
        <mxCell id="hwgrxbp9EYGtSFhaUP7p-2" value="" style="rounded=0;whiteSpace=wrap;html=1;" parent="1" vertex="1">
          <mxGeometry y="600" width="10" height="10" as="geometry" />
        </mxCell>
        <mxCell id="ORRFjI83GlQf2Nu-_G0w-1" value="&lt;font style=&quot;font-size: 17px;&quot;&gt;放物線路線図&lt;/font&gt;" style="rounded=0;whiteSpace=wrap;html=1;" parent="1" vertex="1">
          <mxGeometry x="840" y="640" width="120" height="40" as="geometry" />
        </mxCell>
        <mxCell id="dSUb1XtzRiKML6aMNfzN-1" value="&lt;div&gt;普通&lt;/div&gt;&lt;div&gt;LOCAL&lt;br&gt;&lt;/div&gt;" style="text;html=1;align=center;verticalAlign=middle;whiteSpace=wrap;rounded=0;fillColor=#dae8fc;strokeColor=#6c8ebf;" parent="1" vertex="1">
          <mxGeometry x="880" y="1120" width="80" height="40" as="geometry" />
        </mxCell>
        <mxCell id="V7wfHR6mLjTO899o3rBC-1" value="" style="endArrow=none;html=1;rounded=0;fillColor=#d5e8d4;strokeColor=#82b366;strokeWidth=5;" parent="1" edge="1">
          <mxGeometry width="50" height="50" relative="1" as="geometry">
            <mxPoint x="160" y="760" as="sourcePoint" />
            <mxPoint x="920" y="1000" as="targetPoint" />
            <Array as="points">
              <mxPoint x="440" y="760" />
              <mxPoint x="480" y="880" />
              <mxPoint x="600" y="880" />
              <mxPoint x="640" y="1000" />
            </Array>
          </mxGeometry>
        </mxCell>
        <mxCell id="_6uneYOTdEn36-iv5KcC-2" value="&lt;div&gt;&lt;font style=&quot;font-size: 10px;&quot;&gt;双&lt;/font&gt;&lt;/div&gt;&lt;div&gt;&lt;font style=&quot;font-size: 10px;&quot;&gt;曲&lt;/font&gt;&lt;/div&gt;&lt;div&gt;&lt;font style=&quot;font-size: 10px;&quot;&gt;線&lt;/font&gt;&lt;/div&gt;" style="text;html=1;align=center;verticalAlign=middle;whiteSpace=wrap;rounded=0;fillColor=#dae8fc;strokeColor=#6c8ebf;" vertex="1" parent="1">
          <mxGeometry x="80" y="960" width="40" height="80" as="geometry" />
        </mxCell>
      </root>
    </mxGraphModel>
  </diagram>
  <diagram id="Wgb4qFlITnx-oVtsgQht" name="ページ3">
    <mxGraphModel dx="1122" dy="759" grid="1" gridSize="10" guides="1" tooltips="1" connect="1" arrows="1" fold="1" page="1" pageScale="1" pageWidth="1000" pageHeight="600" math="0" shadow="0">
      <root>
        <mxCell id="0" />
        <mxCell id="1" parent="0" />
        <mxCell id="pBHfX6gQwnZ0v4XfCQ0y-1" value="&lt;font style=&quot;font-size: 17px;&quot;&gt;車両図鑑&lt;/font&gt;" style="rounded=0;whiteSpace=wrap;html=1;" vertex="1" parent="1">
          <mxGeometry x="840" y="40" width="120" height="40" as="geometry" />
        </mxCell>
      </root>
    </mxGraphModel>
  </diagram>
  <diagram id="-ta0jCwI5teGVeoNGKYj" name="ページ4">
    <mxGraphModel dx="1193" dy="806" grid="1" gridSize="10" guides="1" tooltips="1" connect="1" arrows="1" fold="1" page="1" pageScale="1" pageWidth="1000" pageHeight="600" math="0" shadow="0">
      <root>
        <mxCell id="0" />
        <mxCell id="1" parent="0" />
        <mxCell id="yEvLpKT0YjQegHBV_I7m-1" value="&lt;font style=&quot;font-size: 17px;&quot;&gt;放物規格&lt;/font&gt;" style="rounded=0;whiteSpace=wrap;html=1;" vertex="1" parent="1">
          <mxGeometry x="840" y="40" width="120" height="40" as="geometry" />
        </mxCell>
      </root>
    </mxGraphModel>
  </diagram>
</mxfile>
